<svg width="128" height="128" viewBox="0 0 128 128" fill="none" xmlns="http://www.w3.org/2000/svg">
  <rect width="128" height="128" rx="28" fill="#050505"/>
  <path transform="translate(24 24) scale(0.8)" d="M44.51 100Q38.23 100 31.27 98.1Q24.32 96.19 20.7 93.33Q19.37 92.19 19.56 89.9L23.75 64.95Q24.13 62.48 26.04 62.48Q28.13 62.48 28.13 65.14L28.51 74.29Q28.89 85.14 33.75 90.19Q38.61 95.24 45.65 95.24Q51.75 95.24 56.13 91.33Q60.51 87.43 60.51 79.81Q60.51 75.43 59.18 71.71Q57.85 68 54.99 63.71Q52.13 59.43 47.18 53.33Q40.7 44.95 37.56 38.95Q34.42 32.95 34.42 26.48Q34.42 14.48 41.94 7.24Q49.46 0 61.08 0Q66.23 0 71.08 1.52Q75.94 3.05 79.18 6.1Q80.89 7.43 80.32 9.52L74.99 35.05Q74.42 37.52 72.7 37.52Q70.99 37.52 70.61 34.86L70.04 25.71Q69.27 14.29 67.08 9.33Q64.89 4.38 58.04 4.38Q51.94 4.38 48.13 8.57Q44.32 12.76 44.32 18.67Q44.32 24.95 47.75 30.19Q51.18 35.43 57.08 43.43Q64.89 53.71 67.65 59.81Q70.42 65.9 70.42 72.19Q70.42 80.19 66.89 86.48Q63.37 92.76 57.46 96.38Q51.56 100 44.51 100Z" fill="white" stroke="white" stroke-width="3" stroke-linejoin="round"/>
</svg>
